{
    "asset" : {
        "generator" : "Khronos glTF Blender I/O v1.8.19",
        "version" : "2.0"
    },
    "scene" : 0,
    "scenes" : [
        {
            "name" : "Scene",
            "nodes" : [
                4
            ]
        }
    ],
    "nodes" : [
        {
            "mesh" : 0,
            "name" : "NoTTheOneHoodie_FABRIC 3_FRONT_1850_0.001"
        },
        {
            "children" : [
                0
            ],
            "name" : "Hoodie.001",
            "scale" : [
                10,
                10,
                10
            ]
        },
        {
            "children" : [
                1
            ],
            "name" : "RootNode.001"
        },
        {
            "children" : [
                2
            ],
            "name" : "3e6b850ceb1f451ca3e14011953cfc91.fbx.001",
            "rotation" : [
                0.7071068286895752,
                0,
                0,
                0.7071068286895752
            ],
            "scale" : [
                0.0010000000474974513,
                0.0010000000474974513,
                0.0010000000474974513
            ]
        },
        {
            "children" : [
                3
            ],
            "name" : "Sketchfab_model.001",
            "rotation" : [
                -0.7071068286895752,
                0,
                0,
                0.7071068286895752
            ],
            "translation" : [
                1.3723727464675903,
                0,
                0
            ]
        }
    ],
    "materials" : [
        {
            "doubleSided" : true,
            "name" : "FABRIC_3_FRONT_1850.001",
            "pbrMetallicRoughness" : {
                "baseColorFactor" : [
                    0.1490200012922287,
                    0.1490200012922287,
                    0.1490200012922287,
                    1
                ],
                "metallicFactor" : 0,
                "roughnessFactor" : 0.980837881565094
            }
        }
    ],
    "meshes" : [
        {
            "name" : "NoTTheOneHoodie_FABRIC 3_FRONT_1850_0.001",
            "primitives" : [
                {
                    "attributes" : {
                        "POSITION" : 0,
                        "NORMAL" : 1,
                        "TEXCOORD_0" : 2,
                        "TEXCOORD_1" : 3,
                        "TEXCOORD_2" : 4
                    },
                    "indices" : 5,
                    "material" : 0
                }
            ]
        }
    ],
    "accessors" : [
        {
            "bufferView" : 0,
            "componentType" : 5126,
            "count" : 59824,
            "max" : [
                57.547706604003906,
                166.37586975097656,
                20.16322898864746
            ],
            "min" : [
                -27.50836753845215,
                96.1222152709961,
                -15.594197273254395
            ],
            "type" : "VEC3"
        },
        {
            "bufferView" : 1,
            "componentType" : 5126,
            "count" : 59824,
            "type" : "VEC3"
        },
        {
            "bufferView" : 2,
            "componentType" : 5126,
            "count" : 59824,
            "type" : "VEC2"
        },
        {
            "bufferView" : 3,
            "componentType" : 5126,
            "count" : 59824,
            "type" : "VEC2"
        },
        {
            "bufferView" : 4,
            "componentType" : 5126,
            "count" : 59824,
            "type" : "VEC2"
        },
        {
            "bufferView" : 5,
            "componentType" : 5123,
            "count" : 315552,
            "type" : "SCALAR"
        }
    ],
    "bufferViews" : [
        {
            "buffer" : 0,
            "byteLength" : 717888,
            "byteOffset" : 0
        },
        {
            "buffer" : 0,
            "byteLength" : 717888,
            "byteOffset" : 717888
        },
        {
            "buffer" : 0,
            "byteLength" : 478592,
            "byteOffset" : 1435776
        },
        {
            "buffer" : 0,
            "byteLength" : 478592,
            "byteOffset" : 1914368
        },
        {
            "buffer" : 0,
            "byteLength" : 478592,
            "byteOffset" : 2392960
        },
        {
            "buffer" : 0,
            "byteLength" : 631104,
            "byteOffset" : 2871552
        }
    ],
    "buffers" : [
        {
            "byteLength" : 3502656,
            "uri" : "layer.bin"
        }
    ]
}
